<svg width="206.88309" height="281.73196" version="1.1" viewBox="0 0 191.58236 260.89554" xmlns="http://www.w3.org/2000/svg" xmlns:xlink="http://www.w3.org/1999/xlink"><defs><linearGradient id="Metall"><stop stop-color="#e3eefc" offset="0"/><stop stop-color="#7eb2fc" offset=".9207831"/><stop stop-color="#7eb2fc" offset="1"/></linearGradient><linearGradient id="linearGradient1006" x1="237.7684" x2="237.7684" y1="-.16232871" y2="70.812431" gradientUnits="userSpaceOnUse" xlink:href="#Metall"/><linearGradient id="linearGradient1008" x1="274.44098" x2="274.44095" y1="-7.1054274e-15" y2="39.600681" gradientUnits="userSpaceOnUse" spreadMethod="reflect" xlink:href="#Metall"/><linearGradient id="linearGradient1010" x1="268.39368" x2="268.39368" y2="32.223873" gradientUnits="userSpaceOnUse" spreadMethod="reflect" xlink:href="#Metall"/><linearGradient id="linearGradient1018" x1="216.26332" x2="216.26331" y1="-4.5688802e-7" y2="-60.844345" gradientUnits="userSpaceOnUse" xlink:href="#Metall"/><linearGradient id="linearGradient1119" x1="274.44098" x2="274.44095" y1="-7.1054274e-15" y2="39.600681" gradientTransform="translate(-88.729534)" gradientUnits="userSpaceOnUse" spreadMethod="reflect" xlink:href="#Metall"/><linearGradient id="linearGradient1121" x1="268.39368" x2="268.39368" y2="32.223873" gradientTransform="translate(-88.729534)" gradientUnits="userSpaceOnUse" spreadMethod="reflect" xlink:href="#Metall"/><linearGradient id="linearGradient1201" x1="237.7684" x2="237.7684" y1="-.16232871" y2="66.679474" gradientTransform="rotate(90,44.364767,-44.364767)" gradientUnits="userSpaceOnUse" xlink:href="#Metall"/><linearGradient id="linearGradient1203" x1="216.26332" x2="216.26331" y1="-4.5688802e-7" y2="-60.844345" gradientTransform="rotate(90,44.364767,-44.364767)" gradientUnits="userSpaceOnUse" xlink:href="#Metall"/><radialGradient id="radialGradient1636" cx="52.129795" cy="-15.527653" r="73.624863" gradientTransform="matrix(2.5807044 -.49873689 .41843765 2.1652084 -76.789198 30.370128)" gradientUnits="userSpaceOnUse" xlink:href="#Metall"/><radialGradient id="radialGradient1644" cx="-3.0492399e-12" cy="1.4158956e-12" r="32.573872" gradientTransform="scale(.04660458 .05018327)" gradientUnits="userSpaceOnUse" xlink:href="#Metall"/><linearGradient id="linearGradient1652" x1="116.82076" x2="535.17969" y1="807.02734" y2="807.02734" gradientUnits="userSpaceOnUse" xlink:href="#Metall"/></defs><g transform="translate(90.313521,65.531117)"><g stroke="#000" stroke-linecap="round" stroke-linejoin="round"><g id="ulitka-front" stroke-width=".7"><path d="m40.22013-60.844347h34.56744m-74.78757-1.74718c-47.81563 0-66.67966 38.795716-66.67966 62.591528 0 44.322095 34.26942 70.812212 66.69466 70.812212 50.46845 0 74.93029-43.517168 74.93029-70.812212v-60.844348h4.92477v-0.971h-44.74456v0.971h4.92477v15.780432c-10.33576-10.655756-24.30992-17.527612-40.05027-17.527612z" fill="url(#radialGradient1636)"/><path d="m-6.87539e-7 -39.600683a39.600478 39.600478 0 0 0-39.600689 39.600684 39.600478 39.600478 0 0 0 39.600689 39.600682 39.600478 39.600478 0 0 0 39.60069-39.600682 39.600478 39.600478 0 0 0-39.60069-39.600684zm-0.037200412 7.376811a32.223919 32.223919 0 0 1 0.037200412 0 32.223919 32.223919 0 0 1 32.223869 32.223873 32.223919 32.223919 0 0 1-32.223869 32.223871 32.223919 32.223919 0 0 1-32.223868-32.223871 32.223919 32.223919 0 0 1 32.186668-32.223873z" fill="#d3e9f3"/><path d="m -0.0372,-32.223872 a 32.223919,32.223919 0 0 1 0.0372,0 A 32.223919,32.223919 0 0 1 32.22387,1e-6 32.223919,32.223919 0 0 1 0,32.223872 32.223919,32.223919 0 0 1 -32.22387,1e-6 32.223919,32.223919 0 0 1 -0.0372,-32.223872 Z" fill="url(#radialGradient1644)"/></g><g id="ulitka-left" transform="translate(-100.5417)" stroke-width=".7"><path d="m216.26332-4.56888e-7 -1e-5 70.812618 46.53668-4.06e-4v-70.812212" fill="url(#linearGradient1006)"/><rect x="273.98737" y="-39.600681" width=".90720266" height="79.201363" rx="0" ry="0" fill="url(#linearGradient1008)"/><rect x="262.79999" y="-32.223873" width="11.187378" height="64.447746" rx="0" ry="0" fill="url(#linearGradient1010)"/><path d="m262.79999 0v-60.844347h4.92477v-0.971h-56.38623v0.971h4.92477v60.844347m0.16986-60.844343h46.20911" fill="url(#linearGradient1018)"/></g><g id="ulitka-above" transform="translate(0,-11.641667)"><g stroke-width=".7"><path d="m4.56888e-7 127.53379-66.67966-1e-5 4.06e-4 46.53668h66.679254" fill="url(#linearGradient1201)"/><rect transform="rotate(90)" x="185.25783" y="-39.600681" width=".90720266" height="79.201363" rx="0" ry="0" fill="url(#linearGradient1119)"/><rect transform="rotate(90)" x="174.07045" y="-32.223873" width="11.187378" height="64.447746" rx="0" ry="0" fill="url(#linearGradient1121)"/><path d="m 0,174.07046 35.125498,-0.0789 v -46.3729 L 0,127.53377" fill="url(#linearGradient1203)"/></g><path transform="matrix(.26458333 0 0 .26458333 -66.811951 -62.723818)" d="m385.27539 700.4707v213.11328h169.11328v-213.11328z" fill="#d3e9f3" stroke-width="2.64567"/><path transform="matrix(.26458333 0 0 .26458333 -66.811951 -62.723818)" d="m403.88867 719.08398h131.29102v175.88672h-131.29102z" fill="url(#linearGradient1652)" stroke-width="2.64567"/></g></g><g fill="none" stroke="#000" stroke-linecap="round" stroke-linejoin="round" stroke-width=".3"><g stroke-dasharray="1.2, 0.6, 0.3, 0.6"><path id="axes-ulitka-front" d="m57.462597-64.455075v7.96541m-13.726252 56.489662h-87.472689m43.736344-43.736348v87.472697"/><path id="axes-ulitka-above" d="m0 158.56701v19.93908m80.921555-39.34557h-46.847558m23.423775-29.51817v59.03638"/><path id="axes-ulitka-left" d="m177.42844 0h-18.54874"/></g><path d="m0 194.28838v-15.78229"/><path d="m57.497772 194.26955v-25.59082"/><path d="m-8.6e-7 191.00455h57.497773"/></g><path id="Arrow" d="M 8.023534,193.06253 0,191.00455 8.023497,188.94657 Z" stroke="#000" stroke-linecap="round" stroke-linejoin="round" stroke-width=".3"/><use transform="rotate(180,28.748884,191.00533)" width="100%" height="100%" xlink:href="#Arrow"/><text fill="#000000" font-family="sans-serif" font-size="10.5833px" letter-spacing="0px" word-spacing="0px" style="line-height:1.25;shape-inside:url(#rect1378);white-space:pre" xml:space="preserve"/><path d="m-23.272428 22.288372 53.813393-51.537901" fill="none" stroke="#000" stroke-linecap="round" stroke-linejoin="round" stroke-width=".3"/><use transform="rotate(-43.762656,-221.68138,135.62011)" width="100%" height="100%" xlink:href="#Arrow"/><use transform="rotate(136.23734,54.467489,89.031578)" width="100%" height="100%" xlink:href="#Arrow"/><path d="m30.540965-29.249529h41.408147" fill="none" stroke="#000" stroke-linecap="round" stroke-linejoin="round" stroke-width=".3"/><path d="m-0.02351338-62.591524-81.696942 0.0352" fill="none" stroke="#000" stroke-linecap="round" stroke-linejoin="round" stroke-width=".3"/><use transform="rotate(90,87.9082,25.351817)" width="100%" height="100%" xlink:href="#Arrow"/><use transform="rotate(-90,-134.36715,134.38291)" width="100%" height="100%" xlink:href="#Arrow"/><path d="m-43.736344-2.6840313e-6 -37.984111 0.017600004" fill="none" stroke="#000" stroke-linecap="round" stroke-linejoin="round" stroke-width=".3"/><path d="m-77.744815 0.01577732v-62.572078" fill="none" stroke="#000" stroke-linecap="round" stroke-linejoin="round" stroke-width=".3"/><use transform="rotate(90,174.42923,112.60675)" width="100%" height="100%" xlink:href="#Arrow"/><use transform="rotate(-90,-47.494873,47.479149)" width="100%" height="100%" xlink:href="#Arrow"/><g fill="none" stroke="#000" stroke-linecap="round" stroke-linejoin="round" stroke-width=".3"><path d="m96.030836-0.01572331v-61.807112"/><path d="m100.1928-61.824087-20.32274 0.0087"/><path d="m100.1928-0.01697447-56.456455 0.016971786"/></g><use transform="rotate(90,56.621211,56.638822)" width="100%" height="100%" xlink:href="#Arrow"/><use transform="rotate(-90,-98.963036,169.78687)" width="100%" height="100%" xlink:href="#Arrow"/><g fill="none" stroke="#000" stroke-linecap="round" stroke-linejoin="round" stroke-width=".3"><path d="m0.98299048 70.806857-82.703445 0.0176"/><path d="m-77.744815 70.823611v-70.805991"/><path d="M 74.98046,90.876276 74.94529,1e-6"/></g><use transform="rotate(180,37.488228,138.65416)" width="100%" height="100%" xlink:href="#Arrow"/><use transform="translate(.01917239 -104.70174)" width="100%" height="100%" xlink:href="#Arrow"/><path d="M 0.03517,90.907629 0,43.736346" fill="none" stroke="#000" stroke-linecap="round" stroke-linejoin="round" stroke-width=".3"/><path d="m0.001791 86.303033h74.974662" fill="none" stroke="#000" stroke-linecap="round" stroke-linejoin="round" stroke-width=".3"/><use transform="rotate(180,8.955e-4,138.65416)" width="100%" height="100%" xlink:href="#Arrow"/><use transform="translate(-66.646179,-104.70173)" width="100%" height="100%" xlink:href="#Arrow"/><g fill="none" stroke="#000" stroke-linecap="round" stroke-linejoin="round" stroke-width=".3"><path d="m-66.646179 86.303033h66.64797"/><path d="m-66.64449 90.447495-0.03517-86.303032"/><path d="m-77.74481 174.53929v-73.8921"/><path d="m34.073997 139.16052-114.80826 0.017"/><path d="m-39.600681 174.52339-40.794678 0.017"/></g><use transform="rotate(-90,-47.105206,221.64465)" width="100%" height="100%" xlink:href="#Arrow"/><use transform="rotate(90,-12.958501,126.21869)" width="100%" height="100%" xlink:href="#Arrow"/><use transform="rotate(90,85.579289,201.4566)" width="100%" height="100%" xlink:href="#Arrow"/><use transform="rotate(-90,33.719878,128.69405)" width="100%" height="100%" xlink:href="#Arrow"/><g fill="none" stroke="#000" stroke-linecap="round" stroke-linejoin="round" stroke-width=".3"><path d="m96.030843 162.41381v-85.127745"/><path d="m98.767558 115.87521-23.979884 0.017"/><path d="m98.767564 162.41187-23.97989 0.017"/><path d="m0.0851394 103.23186h74.67453"/><path d="m74.787674 115.89221-0.03517-15.899513"/><path d="m40.050258 115.89218-0.03517-15.899513"/></g><use transform="translate(40.022253,-87.77269)" width="100%" height="100%" xlink:href="#Arrow"/><use transform="rotate(180,37.379836,147.11811)" width="100%" height="100%" xlink:href="#Arrow"/><g fill="#000000" font-family="sans-serif" font-size="12.3472px" letter-spacing="0px" stroke-width=".926042" word-spacing="0px"><text x="41.119556" y="-31.574169" style="line-height:1.25" xml:space="preserve">

									<tspan x="41.119556" y="-31.574169" font-size="12.3472px" stroke-width=".926042">{{dim[0]}}</tspan></text><g text-anchor="middle"><text x="-33.196793" y="83.91066" text-align="center" style="line-height:1.25" xml:space="preserve">
									
									<tspan x="-33.196793" y="83.91066" font-size="12.3472px" stroke-width=".926042" text-align="center" text-anchor="middle">{{dim[7]}}</tspan></text><text x="28.729593" y="188.55545" text-align="center" style="line-height:1.25" xml:space="preserve">
									
									<tspan x="28.729593" y="188.55545" font-size="12.3472px" stroke-width=".926042" text-align="center" text-anchor="middle">{{dim[4]}}</tspan></text><text transform="rotate(-90)" x="-96.286751" y="93.843246" text-align="center" style="line-height:1.25" xml:space="preserve">
									
									<tspan x="-96.286751" y="93.843246" font-size="12.3472px" stroke-width=".926042" text-align="center" text-anchor="middle">{{dim[1]}}</tspan></text><text x="19.404688" y="100.74961" text-align="center" style="line-height:1.25" xml:space="preserve">
									
									<tspan x="19.404688" y="100.74961" font-size="12.3472px" stroke-width=".926042" text-align="center" text-anchor="middle">{{dim[2]}}</tspan></text><text transform="rotate(-90)" x="30.028851" y="93.20443" text-align="center" style="line-height:1.25" xml:space="preserve">
									
									<tspan x="30.028851" y="93.20443" font-size="12.3472px" stroke-width=".926042" text-align="center" text-anchor="middle">{{dim[3]}}</tspan></text><text transform="rotate(-90)" x="-35.285568" y="-80.223541" text-align="center" style="line-height:1.25" xml:space="preserve">
									
									<tspan x="-35.285568" y="-80.223541" font-size="12.3472px" stroke-width=".926042" text-align="center" text-anchor="middle">{{dim[5]}}</tspan></text><text transform="rotate(-90)" x="31.40531" y="-80.050827" text-align="center" style="line-height:1.25" xml:space="preserve">
									
									<tspan x="31.40531" y="-80.050827" font-size="12.3472px" stroke-width=".926042" text-align="center" text-anchor="middle">{{dim[6]}}</tspan></text><text x="37.614525" y="83.767349" text-align="center" style="line-height:1.25" xml:space="preserve">
									
									<tspan x="37.614525" y="83.767349" font-size="12.3472px" stroke-width=".926042" text-align="center" text-anchor="middle">{{dim[8]}}</tspan></text><text transform="rotate(-90)" x="-117.21371" y="-79.921967" text-align="center" style="line-height:1.25" xml:space="preserve">
									
									<tspan x="-117.21371" y="-79.921967" font-size="12.3472px" stroke-width=".926042" text-align="center" text-anchor="middle">{{dim[9]}}</tspan></text></g><text x="30.781723" y="-31.152269" style="line-height:1.25" xml:space="preserve">
									
									<tspan x="30.781723" y="-31.152269" font-size="12.3472px" stroke-width=".926042">Ø</tspan></text></g></g></svg>