<svg width="83.669998" height="15.31" version="1.0" viewBox="0 0 836.7 153.10001" xml:space="preserve" xmlns="http://www.w3.org/2000/svg"><g><path d="m191.3 38.3h33c3.7 0 7.5 0.4 11.2 1.1 3.7 0.8 7 2.1 9.9 4s5.3 4.5 7.1 7.7 2.7 7.2 2.7 12.1c0 4.7-1.2 8.8-3.5 12.4s-5.6 6.3-9.9 8.3l19.4 31h-29.6l-14.6-27.5h-0.8v27.3h-25v-76.4zm24.8 32.3h5c0.9 0 1.8-0.1 2.8-0.2s2-0.4 2.9-0.9 1.6-1.1 2.3-1.9c0.6-0.8 0.9-1.9 0.9-3.3s-0.3-2.4-0.8-3.2-1.1-1.4-1.9-1.8-1.6-0.6-2.6-0.8c-0.9-0.1-1.8-0.2-2.6-0.2h-6.1v12.3z" fill="#d20014"/><path d="m258 76.1c0-6.1 1.1-11.7 3.2-16.6s5.1-9.1 8.9-12.6 8.3-6.1 13.5-8 10.8-2.8 16.9-2.8 11.7 0.9 16.9 2.8 9.7 4.5 13.5 8 6.8 7.7 9 12.6 3.2 10.5 3.2 16.6-1.1 11.7-3.2 16.8c-2.2 5-5.2 9.3-9 12.9s-8.3 6.3-13.5 8.3c-5.2 1.9-10.8 2.9-16.9 2.9s-11.7-1-16.9-2.9-9.7-4.7-13.5-8.3-6.8-7.9-8.9-12.9c-2.1-5.1-3.2-10.7-3.2-16.8zm27.4 0c0 2.5 0.4 4.8 1.1 6.9 0.8 2.1 1.8 3.9 3.1 5.4s2.9 2.7 4.8 3.5 3.9 1.2 6.1 1.2 4.2-0.4 6-1.2 3.4-2 4.8-3.5 2.4-3.3 3.2-5.4 1.1-4.4 1.1-6.9c0-2.4-0.4-4.7-1.1-6.8-0.8-2.1-1.8-3.8-3.2-5.2s-3-2.5-4.8-3.3-3.8-1.2-6-1.2-4.2 0.4-6.1 1.2-3.5 1.9-4.8 3.3-2.4 3.1-3.1 5.2-1.1 4.3-1.1 6.8z" fill="#d20014"/><path d="m346 76.5c0-6.1 1.1-11.7 3.2-16.6 2.2-5 5.1-9.2 8.9-12.8 3.7-3.5 8.2-6.3 13.2-8.2 5.1-1.9 10.5-2.9 16.3-2.9 5.9 0 11.5 1 16.8 2.9s9.7 4.5 13.2 7.7l-15.8 19c-1.4-1.9-3.2-3.3-5.4-4.3s-4.6-1.5-7.2-1.5c-2.2 0-4.2 0.4-6.1 1.1-1.9 0.8-3.5 1.9-4.9 3.3s-2.5 3.2-3.3 5.2c-0.8 2.1-1.2 4.3-1.2 6.9 0 2.5 0.4 4.8 1.2 6.8s1.9 3.7 3.4 5.1c1.4 1.4 3 2.5 4.9 3.3s3.9 1.1 5.9 1.1c3 0 5.5-0.6 7.6-1.8s3.8-2.7 5-4.3l15.8 18.9c-3.5 3.5-7.7 6.2-12.8 8.3-5 2.1-10.8 3.1-17.2 3.1-5.8 0-11.2-1-16.3-2.9s-9.5-4.7-13.2-8.3-6.7-7.8-8.9-12.8c-2.1-4.7-3.1-10.2-3.1-16.3z" fill="#d20014"/><path d="m445.8 84.3h-0.2v30.5h-25v-76.5h24.9v28.2h0.2l20.4-28.2h30.3l-28.8 35 30.2 41.5h-31.6z" fill="#d20014"/><path d="m542.4 114.8h-25.9l-20.9-76.5h27.2l8.2 43h0.4l8.9-43h26.9l9.6 43h0.4l8.3-43h26.4l-21.3 76.5h-25.9l-10.7-43.2h-0.4z" fill="#d20014"/><path d="m608 76.1c0-6.1 1.1-11.7 3.2-16.6 2.2-4.9 5.1-9.1 8.9-12.6s8.3-6.1 13.5-8 10.8-2.8 16.9-2.8 11.7 0.9 16.9 2.8 9.7 4.5 13.5 8 6.8 7.7 9 12.6 3.2 10.5 3.2 16.6-1.1 11.7-3.2 16.8c-2.2 5-5.2 9.3-9 12.9s-8.3 6.3-13.5 8.3c-5.2 1.9-10.8 2.9-16.9 2.9s-11.7-1-16.9-2.9-9.7-4.7-13.5-8.3-6.8-7.9-8.9-12.9c-2.1-5.1-3.2-10.7-3.2-16.8zm27.3 0c0 2.5 0.4 4.8 1.1 6.9 0.8 2.1 1.8 3.9 3.1 5.4s2.9 2.7 4.8 3.5 3.9 1.2 6.1 1.2 4.2-0.4 6-1.2 3.4-2 4.8-3.5 2.4-3.3 3.2-5.4 1.1-4.4 1.1-6.9c0-2.4-0.4-4.7-1.1-6.8-0.8-2.1-1.8-3.8-3.2-5.2s-3-2.5-4.8-3.3-3.8-1.2-6-1.2-4.2 0.4-6.1 1.2-3.5 1.9-4.8 3.3-2.4 3.1-3.1 5.2-1.1 4.3-1.1 6.8z" fill="#d20014"/><path d="m695.9 76.1c0-6.1 1.1-11.7 3.2-16.6s5.1-9.1 8.9-12.6 8.3-6.1 13.5-8 10.8-2.8 16.9-2.8 11.7 0.9 16.9 2.8 9.7 4.5 13.5 8 6.8 7.7 9 12.6 3.2 10.5 3.2 16.6-1.1 11.7-3.2 16.8c-2.2 5-5.2 9.3-9 12.9s-8.3 6.3-13.5 8.3c-5.2 1.9-10.8 2.9-16.9 2.9s-11.7-1-16.9-2.9-9.7-4.7-13.5-8.3-6.8-7.9-8.9-12.9c-2.1-5.1-3.2-10.7-3.2-16.8zm27.4 0c0 2.5 0.4 4.8 1.1 6.9 0.8 2.1 1.8 3.9 3.1 5.4s2.9 2.7 4.8 3.5 3.9 1.2 6.1 1.2 4.2-0.4 6-1.2 3.4-2 4.8-3.5 2.4-3.3 3.2-5.4 1.1-4.4 1.1-6.9c0-2.4-0.4-4.7-1.1-6.8-0.8-2.1-1.8-3.8-3.2-5.2s-3-2.5-4.8-3.3-3.8-1.2-6-1.2-4.2 0.4-6.1 1.2-3.5 1.9-4.8 3.3-2.4 3.1-3.1 5.2c-0.8 2.1-1.1 4.3-1.1 6.8z" fill="#d20014"/><path d="m785.4 38.3h25.9v54.4h25.4v22.2h-51.3z" fill="#d20014"/><rect width="153.10001" height="153.10001" fill="#d20014"/><polygon points="53.6 114.8 15.3 114.8 61.2 38.3 70.8 38.3 70.8 86.1" fill="#fff"/><polygon points="82.3 86.1 82.3 38.3 91.9 38.3 137.7 114.8 99.5 114.8" fill="#fff"/><path d="m818.3 47.3c0-1.3 0.2-2.5 0.7-3.7 0.5-1.1 1.2-2.1 2-2.9s1.8-1.5 2.9-1.9c1.1-0.5 2.3-0.7 3.6-0.7 1.2 0 2.4 0.2 3.6 0.7 1.1 0.5 2.1 1.1 2.9 1.9s1.5 1.8 2 2.9 0.7 2.3 0.7 3.6-0.2 2.5-0.7 3.7c-0.5 1.1-1.2 2.1-2 2.9s-1.8 1.5-2.9 1.9c-1.1 0.5-2.3 0.7-3.6 0.7s-2.5-0.2-3.6-0.7-2.1-1.1-2.9-1.9-1.5-1.8-2-2.9c-0.4-1.1-0.7-2.3-0.7-3.6zm1.5 0c0 1.1 0.2 2.1 0.6 3.1 0.4 0.9 1 1.8 1.7 2.5s1.5 1.2 2.5 1.6c0.9 0.4 1.9 0.6 3 0.6s2.1-0.2 3-0.6 1.8-1 2.5-1.7 1.3-1.5 1.7-2.5 0.6-2 0.6-3.1-0.2-2.1-0.6-3.1-1-1.8-1.7-2.5-1.5-1.2-2.5-1.6c-0.9-0.4-1.9-0.6-3-0.6s-2.1 0.2-3 0.6-1.8 1-2.5 1.6c-0.7 0.7-1.3 1.5-1.7 2.5s-0.6 2.1-0.6 3.2zm4.3-5.3h3.9c1.3 0 2.2 0.2 2.8 0.7s0.9 1.3 0.9 2.3-0.3 1.6-0.8 2.1c-0.5 0.4-1.2 0.7-2 0.8l3.1 4.7h-1.6l-2.9-4.5h-1.9v4.5h-1.5zm1.5 4.7h1.8 1.1c0.3 0 0.7-0.1 0.9-0.2s0.5-0.3 0.6-0.5c0.2-0.2 0.2-0.6 0.2-1s-0.1-0.7-0.2-0.9-0.3-0.4-0.6-0.5c-0.2-0.1-0.5-0.2-0.8-0.2h-0.8-2.3v3.3z" fill="#d20014"/></g></svg>
