<svg width="77.20752" height="77.182152" version="1.1" viewBox="0 0 40.855646 40.842222" xmlns="http://www.w3.org/2000/svg"><path d="m24.33412 40.18645c-1.90035-0.51061-3.38149-2.05059-3.77788-3.92795-0.25325-1.19944-0.0886-2.13818 0.74974-4.27567 0.70495-1.79728 0.78369-2.19288 0.78369-3.93699 0-1.31925-0.021-1.54239-0.19153-2.03554-0.30634-0.88584-0.8802-1.3509-1.54571-1.25264-0.36143 0.0534-0.49694 0.38336-0.72457 1.76447-0.26718 1.62109-0.63915 2.75956-1.35307 4.14125-2.12782 4.11817-5.20153 6.15503-8.73125 5.78597-4.08325-0.42694-7.55069-3.79022-8.75108-8.48818-0.20709-0.81049-0.33432-2.64133-0.22065-3.175 0.68422-3.21223 3.53793-4.99932 6.5742-4.11699 0.30268 0.088 1.03219 0.35313 1.62113 0.58927 1.81508 0.72776 2.24599 0.81558 4.0092 0.81708 1.36338 1e-3 1.58212-0.0188 2.07545-0.18942 0.84546-0.29242 1.30519-0.81942 1.25252-1.43579-0.0407-0.47679-0.27164-0.58586-1.76164-0.83208-1.52678-0.25231-2.67837-0.61459-3.90639-1.22892-2.76194-1.38169-4.70726-3.26479-5.57475-5.39646-0.36293-0.89183-0.4615-1.47394-0.46179-2.72702-4e-4 -1.79481 0.41244-3.12776 1.45362-4.69335 1.98342-2.98238 5.75346-5.04332 9.22566-5.04332 0.55686 0 1.12106 0.0518 1.42603 0.13083 1.75752 0.45566 3.17739 1.78633 3.69994 3.4675 0.21917 0.70514 0.25418 2.02026 0.0733 2.75167-0.0634 0.25612-0.35344 1.07527-0.64463 1.82033-0.7775 1.98936-0.91503 2.67471-0.86954 4.33298 0.0386 1.40753 0.13516 1.86388 0.51823 2.44951 0.23075 0.35278 0.70993 0.62585 1.09825 0.62585 0.44382 0 0.60837-0.26536 0.77555-1.25074 0.36895-2.17462 0.48488-2.60107 1.05327-3.87451 1.52109-3.40786 3.95042-5.77495 6.61129-6.44192 0.76275-0.19119 2.55682-0.21303 3.34434-0.0407 3.4942 0.76456 6.41435 3.62993 7.65957 7.51588 0.41544 1.29645 0.53904 2.13633 0.49266 3.34778-0.0433 1.13145-0.22803 1.75001-0.7963 2.66657-0.66941 1.0797-1.82665 1.94284-2.9956 2.2343-0.63082 0.15729-2.03198 0.13967-2.66948-0.0336-0.28076-0.0763-1.08086-0.36329-1.778-0.63778-1.93985-0.76379-2.19531-0.8163-3.97685-0.81739-1.36985-8.4e-4 -1.58072 0.0187-2.0847 0.19288-0.87884 0.30378-1.34379 0.87981-1.24581 1.54344 0.0526 0.3564 0.38497 0.49341 1.74248 0.71834 1.58969 0.26339 2.39064 0.50949 3.72311 1.14395 2.55927 1.21861 4.5316 2.9625 5.5047 4.86713 1.5486 3.03106 0.72569 6.90572-2.0522 9.66272-1.67058 1.65801-3.96706 2.85724-6.29544 3.28748-0.88751 0.164-2.43903 0.16133-3.05903-5e-3zm-2.989-17.91093c0.70296-0.33134 1.14249-1.04293 1.14249-1.84968 0-2.25462-3.09274-2.85208-3.97638-0.76816-0.16209 0.38225-0.1607 1.14723 3e-3 1.53854 0.4723 1.13037 1.71643 1.60468 2.83108 1.0793z" style="stroke-width:.0846667"/></svg>
